<?xml version="1.0" encoding="UTF-8"?>
<svg width="1044px" height="1035px" viewBox="0 0 1044 1035" version="1.1" xmlns="http://www.w3.org/2000/svg" xmlns:xlink="http://www.w3.org/1999/xlink">
    <!-- Generator: Sketch 55.2 (78181) - https://sketchapp.com -->
    <title>Group 159</title>
    <desc>Created with Sketch.</desc>
    <defs>
        <polygon id="path-1" points="0.406150105 0.727958648 45.8014608 0.727958648 45.8014608 55.4400507 0.406150105 55.4400507"></polygon>
    </defs>
    <g id="Page-1" stroke="none" stroke-width="1" fill="none" fill-rule="evenodd">
        <g id="Group-159">
            <path d="M631.119651,666.320007 L522,652.698773 L412.884633,666.320007 L419.704076,625.464857 L307.174704,547.163072 L348.09136,530.137598 L320.813589,458.644292 L392.422021,475.669766 L402.651185,431.410376 L457.211011,482.478245 L440.162404,380.346783 L481.083344,397.363704 L522,308.8492 L562.92094,397.363704 L603.84188,380.346783 L586.788989,482.478245 L641.348815,431.410376 L651.577979,475.669766 L723.190695,458.644292 L695.90864,530.137598 L736.82958,547.163072 L624.300208,625.464857 L631.119651,666.320007 Z M522,207 C350.51586,207 211,346.287282 211,517.5 C211,688.708442 350.51586,828 522,828 C693.488423,828 833,688.708442 833,517.5 C833,346.287282 693.488423,207 522,207 L522,207 Z" id="Fill-1" fill="#ED0F44"></path>
            <g id="Group-158">
                <path d="M634.213693,52.9973802 C634.213693,52.9973802 636.053375,2.45545378 587.134946,0.674693091 C587.134946,0.674693091 577.512981,50.934095 634.213693,52.9973802" id="Fill-3" fill="#ED0F44"></path>
                <path d="M634.223961,71.2908436 C634.223961,71.2908436 617.914966,119.16591 571.584927,103.365939 C571.584927,103.365939 580.513802,52.9781172 634.223961,71.2908436" id="Fill-5" fill="#ED0F44"></path>
                <path d="M705.698174,76.4618987 C705.698174,76.4618987 715.414262,26.831756 667.37717,17.4142716 C667.37717,17.4142716 650.015706,65.5461782 705.698174,76.4618987" id="Fill-7" fill="#ED0F44"></path>
                <path d="M702.846667,94.5336232 C702.846667,94.5336232 679.255954,139.262393 635.96353,116.407871 C635.96353,116.407871 652.666131,68.0405273 702.846667,94.5336232" id="Fill-9" fill="#ED0F44"></path>
                <path d="M772.632652,110.82844 C772.632652,110.82844 789.989838,63.3300729 744.019179,46.5113019 C744.019179,46.5113019 719.34177,91.3299662 772.632652,110.82844" id="Fill-11" fill="#ED0F44"></path>
                <path d="M766.99039,128.231095 C766.99039,128.231095 736.699811,168.717716 697.514584,139.36941 C697.514584,139.36941 721.567357,94.2082919 766.99039,128.231095" id="Fill-13" fill="#ED0F44"></path>
                <path d="M833.369112,155.249001 C833.369112,155.249001 857.939563,111.051035 815.164817,87.2419219 C815.164817,87.2419219 783.783264,127.651491 833.369112,155.249001" id="Fill-15" fill="#ED0F44"></path>
                <path d="M825.077708,171.552379 C825.077708,171.552379 788.827415,206.795174 754.71201,171.676518 C754.71201,171.676518 785.533101,130.834601 825.077708,171.552379" id="Fill-17" fill="#ED0F44"></path>
                <path d="M886.415702,208.627731 C886.415702,208.627731 917.596173,168.817456 879.06553,138.608734 C879.06553,138.608734 841.754212,173.607531 886.415702,208.627731" id="Fill-19" fill="#ED0F44"></path>
                <path d="M875.676237,223.430304 C875.676237,223.430304 834.360401,252.573137 806.157648,212.540267 C806.157648,212.540267 842.981237,177.02779 875.676237,223.430304" id="Fill-21" fill="#ED0F44"></path>
                <path d="M930.461112,269.648321 C930.461112,269.648321 967.481504,235.210293 934.149033,199.342519 C934.149033,199.342519 891.823511,228.070127 930.461112,269.648321" id="Fill-23" fill="#ED0F44"></path>
                <path d="M917.540127,282.590513 C917.540127,282.590513 872.17699,304.90567 850.579979,260.951702 C850.579979,260.951702 892.503338,231.646203 917.540127,282.590513" id="Fill-25" fill="#ED0F44"></path>
                <path d="M964.424209,336.8181 C964.424209,336.8181 1006.37324,308.595612 979.060377,267.954886 C979.060377,267.954886 932.764565,289.704994 964.424209,336.8181" id="Fill-27" fill="#ED0F44"></path>
                <path d="M949.6383,347.578432 C949.6383,347.578432 901.344507,362.513706 886.888029,315.725932 C886.888029,315.725932 932.88008,293.338003 949.6383,347.578432" id="Fill-29" fill="#ED0F44"></path>
                <path d="M987.46644,408.473171 C987.46644,408.473171 1033.30875,387.163972 1012.69148,342.747691 C1012.69148,342.747691 963.563409,356.985215 987.46644,408.473171" id="Fill-31" fill="#ED0F44"></path>
                <path d="M971.18012,416.783672 C971.18012,416.783672 921.149326,423.983767 914.184204,375.500845 C914.184204,375.500845 963.106911,360.591255 971.18012,416.783672" id="Fill-33" fill="#ED0F44"></path>
                <path d="M999.022638,482.854174 C999.022638,482.854174 1047.63303,468.984788 1034.2119,421.884524 C1034.2119,421.884524 983.462351,428.254168 999.022638,482.854174" id="Fill-35" fill="#ED0F44"></path>
                <path d="M981.638071,488.514511 C981.638071,488.514511 931.098155,487.791077 931.795523,438.820158 C931.795523,438.820158 982.446675,431.748483 981.638071,488.514511" id="Fill-37" fill="#ED0F44"></path>
                <g id="Group-41" transform="translate(997.773142, 502.685508)">
                    <mask id="mask-2" fill="white">
                        <use xlink:href="#path-1"></use>
                    </mask>
                    <g id="Clip-40"></g>
                    <path d="M1.03472401,55.4400507 C1.03472401,55.4400507 51.21526,49.3486506 45.3239992,0.733027776 C45.3239992,0.733027776 -5.79776947,-0.919312667 1.03472401,55.4400507" id="Fill-39" fill="#ED0F44" mask="url(#mask-2)"></path>
                </g>
                <path d="M980.752029,560.997463 C980.752029,560.997463 930.943708,552.371904 939.295008,504.111577 C939.295008,504.111577 990.429612,505.057606 980.752029,560.997463" id="Fill-42" fill="#ED0F44"></path>
                <path d="M986.827258,632.439356 C986.827258,632.439356 1037.3415,634.280046 1039.12129,585.334812 C1039.12129,585.334812 988.889413,575.703293 986.827258,632.439356" id="Fill-44" fill="#ED0F44"></path>
                <path d="M968.543813,632.447918 C968.543813,632.447918 920.699246,616.129985 936.486284,569.774559 C936.486284,569.774559 986.84651,578.708327 968.543813,632.447918" id="Fill-46" fill="#ED0F44"></path>
                <path d="M963.373451,703.961298 C963.373451,703.961298 1012.98069,713.68271 1022.38874,665.623575 C1022.38874,665.623575 974.283193,648.248316 963.373451,703.961298" id="Fill-48" fill="#ED0F44"></path>
                <path d="M945.315902,701.10994 C945.315902,701.10994 900.607351,677.5063 923.453635,634.190152 C923.453635,634.190152 971.794489,650.897626 945.315902,701.10994" id="Fill-50" fill="#ED0F44"></path>
                <path d="M929.027871,770.934594 C929.027871,770.934594 976.500224,788.301291 993.309784,742.305441 C993.309784,742.305441 948.515666,717.61451 929.027871,770.934594" id="Fill-52" fill="#ED0F44"></path>
                <path d="M911.636886,765.286672 C911.636886,765.286672 871.172439,734.979495 900.504671,695.772795 C900.504671,695.772795 945.641056,719.843029 911.636886,765.286672" id="Fill-54" fill="#ED0F44"></path>
                <path d="M884.633777,831.704336 C884.633777,831.704336 928.807537,856.288251 952.60361,813.485785 C952.60361,813.485785 912.216172,782.091316 884.633777,831.704336" id="Fill-56" fill="#ED0F44"></path>
                <path d="M868.339328,823.406248 C868.339328,823.406248 833.111557,787.136092 868.215257,753.006272 C868.215257,753.006272 909.030528,783.839972 868.339328,823.406248" id="Fill-58" fill="#ED0F44"></path>
                <path d="M831.284282,884.777854 C831.284282,884.777854 871.068475,915.975411 901.26493,877.423655 C901.26493,877.423655 866.285302,840.096171 831.284282,884.777854" id="Fill-60" fill="#ED0F44"></path>
                <path d="M816.487676,874.034216 C816.487676,874.034216 787.365082,832.695741 827.371749,804.477533 C827.371749,804.477533 862.864777,841.3213 816.487676,874.034216" id="Fill-62" fill="#ED0F44"></path>
                <path d="M770.292833,928.846972 C770.292833,928.846972 804.712,965.88765 840.56013,932.536914 C840.56013,932.536914 811.848255,890.192479 770.292833,928.846972" id="Fill-64" fill="#ED0F44"></path>
                <path d="M757.359868,915.921475 C757.359868,915.921475 735.056932,870.5292 778.986828,848.924635 C778.986828,848.924635 808.280555,890.870966 757.359868,915.921475" id="Fill-66" fill="#ED0F44"></path>
                <path d="M703.164119,962.829108 C703.164119,962.829108 731.366873,1004.80112 771.989619,977.473297 C771.989619,977.473297 750.251423,931.156396 703.164119,962.829108" id="Fill-68" fill="#ED0F44"></path>
                <path d="M692.40968,948.034668 C692.40968,948.034668 677.478308,899.718693 724.244736,885.250012 C724.244736,885.250012 746.620404,931.267266 692.40968,948.034668" id="Fill-70" fill="#ED0F44"></path>
                <path d="M631.548293,985.883538 C631.548293,985.883538 652.841543,1031.75525 697.237776,1011.1224 C697.237776,1011.1224 683.00805,961.967409 631.548293,985.883538" id="Fill-72" fill="#ED0F44"></path>
                <path d="M623.240203,969.588722 C623.240203,969.588722 616.044052,919.530512 664.500421,912.561573 C664.500421,912.561573 679.401845,961.511089 623.240203,969.588722" id="Fill-74" fill="#ED0F44"></path>
                <path d="M557.208026,997.446497 C557.208026,997.446497 571.069816,1046.08352 618.144284,1032.65505 C618.144284,1032.65505 611.77385,981.877683 557.208026,997.446497" id="Fill-76" fill="#ED0F44"></path>
                <path d="M551.55079,980.051975 C551.55079,980.051975 552.269549,929.484365 601.217926,930.186395 C601.217926,930.186395 608.285728,980.861023 551.55079,980.051975" id="Fill-78" fill="#ED0F44"></path>
                <path d="M409.36091,52.9973802 C409.36091,52.9973802 407.521228,2.45545378 456.439657,0.674693091 C456.439657,0.674693091 466.0659,50.934095 409.36091,52.9973802" id="Fill-80" fill="#ED0F44"></path>
                <path d="M409.352781,71.2908436 C409.352781,71.2908436 425.657498,119.16591 471.991815,103.365939 C471.991815,103.365939 463.06294,52.9781172 409.352781,71.2908436" id="Fill-82" fill="#ED0F44"></path>
                <path d="M337.878568,76.4618987 C337.878568,76.4618987 328.16248,26.831756 376.195294,17.4142716 C376.195294,17.4142716 393.561036,65.5461782 337.878568,76.4618987" id="Fill-84" fill="#ED0F44"></path>
                <path d="M340.730075,94.5336232 C340.730075,94.5336232 364.320788,139.262393 407.608934,116.407871 C407.608934,116.407871 390.910611,68.0405273 340.730075,94.5336232" id="Fill-86" fill="#ED0F44"></path>
                <path d="M270.94409,110.82844 C270.94409,110.82844 253.582626,63.3300729 299.557563,46.5113019 C299.557563,46.5113019 324.234972,91.3299662 270.94409,110.82844" id="Fill-88" fill="#ED0F44"></path>
                <path d="M276.584641,128.231095 C276.584641,128.231095 306.879498,168.717716 346.064725,139.36941 C346.064725,139.36941 322.007674,94.2082919 276.584641,128.231095" id="Fill-90" fill="#ED0F44"></path>
                <path d="M210.205491,155.249001 C210.205491,155.249001 185.63504,111.051035 228.409786,87.2419219 C228.409786,87.2419219 259.791339,127.651491 210.205491,155.249001" id="Fill-92" fill="#ED0F44"></path>
                <path d="M218.499034,171.552379 C218.499034,171.552379 254.749327,206.795174 288.860454,171.676518 C288.860454,171.676518 258.043641,130.834601 218.499034,171.552379" id="Fill-94" fill="#ED0F44"></path>
                <path d="M157.161041,208.627731 C157.161041,208.627731 125.980569,168.817456 164.511212,138.608734 C164.511212,138.608734 201.82253,173.607531 157.161041,208.627731" id="Fill-96" fill="#ED0F44"></path>
                <path d="M167.900933,223.430304 C167.900933,223.430304 209.216769,252.573137 237.419522,212.540267 C237.419522,212.540267 200.591655,177.02779 167.900933,223.430304" id="Fill-98" fill="#ED0F44"></path>
                <path d="M113.116058,269.648321 C113.116058,269.648321 76.0956661,235.210293 109.428137,199.342519 C109.428137,199.342519 151.749381,228.070127 113.116058,269.648321" id="Fill-100" fill="#ED0F44"></path>
                <path d="M126.036616,282.590513 C126.036616,282.590513 171.399752,304.90567 192.996763,260.951702 C192.996763,260.951702 151.073404,231.646203 126.036616,282.590513" id="Fill-102" fill="#ED0F44"></path>
                <path d="M79.1525331,336.8181 C79.1525331,336.8181 37.2035045,308.595612 64.5163651,267.954886 C64.5163651,267.954886 110.812177,289.704994 79.1525331,336.8181" id="Fill-104" fill="#ED0F44"></path>
                <path d="M93.9388704,347.578432 C93.9388704,347.578432 142.232663,362.513706 156.689141,315.725932 C156.689141,315.725932 110.69709,293.338003 93.9388704,347.578432" id="Fill-106" fill="#ED0F44"></path>
                <path d="M56.1085904,408.473171 C56.1085904,408.473171 10.2662814,387.163972 30.8878334,342.747691 C30.8878334,342.747691 80.0116218,356.985215 56.1085904,408.473171" id="Fill-108" fill="#ED0F44"></path>
                <path d="M72.3944825,416.783672 C72.3944825,416.783672 122.429555,423.983767 129.394677,375.500845 C129.394677,375.500845 80.4676918,360.591255 72.3944825,416.783672" id="Fill-110" fill="#ED0F44"></path>
                <path d="M44.5519647,482.854174 C44.5519647,482.854174 -4.05842411,468.984788 9.36269801,421.884524 C9.36269801,421.884524 60.1122519,428.254168 44.5519647,482.854174" id="Fill-112" fill="#ED0F44"></path>
                <path d="M61.9369598,488.514511 C61.9369598,488.514511 112.481154,487.791077 111.779508,438.820158 C111.779508,438.820158 61.1283554,431.748483 61.9369598,488.514511" id="Fill-114" fill="#ED0F44"></path>
                <path d="M44.7671647,558.125559 C44.7671647,558.125559 -5.41337132,552.034159 0.482167824,503.418536 C0.482167824,503.418536 51.5996581,501.766195 44.7671647,558.125559" id="Fill-116" fill="#ED0F44"></path>
                <path d="M62.8247133,560.997463 C62.8247133,560.997463 112.633035,552.371904 104.281734,504.111577 C104.281734,504.111577 53.1471302,505.057606 62.8247133,560.997463" id="Fill-118" fill="#ED0F44"></path>
                <path d="M56.7499121,632.439356 C56.7499121,632.439356 6.2356664,634.280046 4.455881,585.334812 C4.455881,585.334812 54.6877569,575.703293 56.7499121,632.439356" id="Fill-120" fill="#ED0F44"></path>
                <path d="M75.0307896,632.447918 C75.0307896,632.447918 122.879636,616.129985 107.088319,569.774559 C107.088319,569.774559 56.7280927,578.708327 75.0307896,632.447918" id="Fill-122" fill="#ED0F44"></path>
                <path d="M80.2011518,703.961298 C80.2011518,703.961298 30.5981904,713.68271 21.1858638,665.623575 C21.1858638,665.623575 69.2914096,648.248316 80.2011518,703.961298" id="Fill-124" fill="#ED0F44"></path>
                <path d="M98.2608396,701.10994 C98.2608396,701.10994 142.965113,677.5063 120.123107,634.190152 C120.123107,634.190152 71.7822535,650.897626 98.2608396,701.10994" id="Fill-126" fill="#ED0F44"></path>
                <path d="M114.54716,770.934594 C114.54716,770.934594 67.0748066,788.301291 50.2652469,742.305441 C50.2652469,742.305441 95.0636434,717.61451 114.54716,770.934594" id="Fill-128" fill="#ED0F44"></path>
                <path d="M131.938144,765.286672 C131.938144,765.286672 172.402592,734.979495 143.07036,695.772795 C143.07036,695.772795 97.9339752,719.843029 131.938144,765.286672" id="Fill-130" fill="#ED0F44"></path>
                <path d="M158.942965,831.704336 C158.942965,831.704336 114.769205,856.288251 90.9731318,813.485785 C90.9731318,813.485785 131.36057,782.091316 158.942965,831.704336" id="Fill-132" fill="#ED0F44"></path>
                <path d="M175.237414,823.406248 C175.237414,823.406248 210.465186,787.136092 175.361485,753.006272 C175.361485,753.006272 134.546214,783.839972 175.237414,823.406248" id="Fill-134" fill="#ED0F44"></path>
                <path d="M212.290321,884.777854 C212.290321,884.777854 172.506128,915.975411 142.313951,877.423655 C142.313951,877.423655 177.293579,840.096171 212.290321,884.777854" id="Fill-136" fill="#ED0F44"></path>
                <path d="M227.086927,874.034216 C227.086927,874.034216 256.213799,832.695741 216.202854,804.477533 C216.202854,804.477533 180.709826,841.3213 227.086927,874.034216" id="Fill-138" fill="#ED0F44"></path>
                <path d="M273.28177,928.846972 C273.28177,928.846972 238.862603,965.88765 203.014473,932.536914 C203.014473,932.536914 231.726348,890.192479 273.28177,928.846972" id="Fill-140" fill="#ED0F44"></path>
                <path d="M286.216874,915.921475 C286.216874,915.921475 308.51981,870.5292 264.589914,848.924635 C264.589914,848.924635 235.296187,890.870966 286.216874,915.921475" id="Fill-142" fill="#ED0F44"></path>
                <path d="M340.412623,962.829108 C340.412623,962.829108 312.20987,1004.80112 271.587123,977.473297 C271.587123,977.473297 293.32532,931.156396 340.412623,962.829108" id="Fill-144" fill="#ED0F44"></path>
                <path d="M351.164922,948.034668 C351.164922,948.034668 366.096295,899.718693 319.334145,885.250012 C319.334145,885.250012 296.958478,931.267266 351.164922,948.034668" id="Fill-146" fill="#ED0F44"></path>
                <path d="M412.028877,985.883538 C412.028877,985.883538 390.731349,1031.75525 346.339394,1011.1224 C346.339394,1011.1224 360.56912,961.967409 412.028877,985.883538" id="Fill-148" fill="#ED0F44"></path>
                <path d="M420.336967,969.588722 C420.336967,969.588722 427.52884,919.530512 379.076749,912.561573 C379.076749,912.561573 364.175325,961.511089 420.336967,969.588722" id="Fill-150" fill="#ED0F44"></path>
                <path d="M486.369144,997.446497 C486.369144,997.446497 472.507354,1046.08352 425.432886,1032.65505 C425.432886,1032.65505 431.80332,981.877683 486.369144,997.446497" id="Fill-152" fill="#ED0F44"></path>
                <path d="M492.025952,980.051975 C492.025952,980.051975 491.302915,929.484365 442.358816,930.186395 C442.358816,930.186395 435.291014,980.861023 492.025952,980.051975" id="Fill-154" fill="#ED0F44"></path>
                <path d="M521.788585,803.909059 C364.132114,803.909059 235.87205,675.578712 235.87205,517.840129 C235.87205,360.097265 364.132114,231.766918 521.788585,231.766918 C679.445056,231.766918 807.70512,360.097265 807.70512,517.840129 C807.70512,675.578712 679.445056,803.909059 521.788585,803.909059 M521.788585,150.292836 C318.910163,150.292836 154.44259,314.850534 154.44259,517.840129 C154.44259,720.829724 318.910163,885.383141 521.788585,885.383141 C724.667007,885.383141 889.130302,720.829724 889.130302,517.840129 C889.130302,314.850534 724.667007,150.292836 521.788585,150.292836" id="Fill-156" fill="#ED0F44"></path>
            </g>
        </g>
    </g>
</svg>