<?xml version="1.0" encoding="UTF-8"?>
<svg width="1046px" height="1036px" viewBox="0 0 1046 1036" version="1.1" xmlns="http://www.w3.org/2000/svg" xmlns:xlink="http://www.w3.org/1999/xlink">
    <!-- Generator: Sketch 55.2 (78181) - https://sketchapp.com -->
    <title>Group 160</title>
    <desc>Created with Sketch.</desc>
    <defs>
        <polygon id="path-1" points="0.330990512 0.501442546 45.8170738 0.501442546 45.8170738 55.2704012 0.330990512 55.2704012"></polygon>
    </defs>
    <g id="Page-1" stroke="none" stroke-width="1" fill="none" fill-rule="evenodd">
        <g id="Group-160">
            <g id="Group-5" transform="translate(154.000000, 150.000000)" fill="#ED0F44">
                <path d="M477.483447,517.207428 L368.330319,503.565318 L259.181476,517.207428 L266.00301,476.289665 L153.439115,397.867879 L194.368324,380.816312 L167.082185,309.213439 L238.712586,326.265006 L248.944888,281.937786 L303.521452,333.083919 L286.467615,230.795936 L327.401109,247.838936 L368.330319,159.18878 L409.263813,247.838936 L450.197307,230.795936 L433.139185,333.083919 L487.715749,281.937786 L497.948051,326.265006 L569.582737,309.213439 L542.292313,380.816312 L583.225807,397.867879 L470.661912,476.289665 L477.483447,517.207428 Z M368.330319,57.1834913 C196.793569,57.1834913 57.2349058,196.684237 57.2349058,368.159347 C57.2349058,539.630173 196.793569,679.135202 368.330319,679.135202 C539.871353,679.135202 679.425731,539.630173 679.425731,368.159347 C679.425731,196.684237 539.871353,57.1834913 368.330319,57.1834913 L368.330319,57.1834913 Z" id="Fill-1"></path>
                <path d="M381.069278,704.51124 C376.835813,704.66972 372.602348,704.832483 368.330319,704.832483 C364.169697,704.832483 360.043353,704.66972 355.912726,704.519806 C178.959883,698.094951 36.9159872,555.274697 31.7784116,378.064332 C31.6798593,374.770523 31.5256035,371.480997 31.5256035,368.161488 C31.5256035,365.154656 31.6755744,362.190656 31.7569872,359.209523 C36.3632372,183.181332 176.020452,40.776552 351.023673,31.9231012 C356.756848,31.6275578 362.528586,31.4819277 368.330319,31.4819277 C374.136336,31.4819277 379.908074,31.6275578 385.641249,31.9231012 C563.609609,40.9264653 705.135034,188.02139 705.135034,368.161488 C705.135034,549.830702 561.167226,697.803691 381.069278,704.51124 M368.330319,0.389910405 C165.141133,0.389910405 0.425917442,165.05039 0.425917442,368.161488 C0.425917442,571.272587 165.141133,735.9245 368.330319,735.9245 C571.519505,735.9245 736.239005,571.272587 736.239005,368.161488 C736.239005,165.05039 571.519505,0.389910405 368.330319,0.389910405" id="Fill-3"></path>
            </g>
            <g id="Group-159">
                <path d="M635.481867,52.976707 C635.481867,52.976707 637.325228,2.38224835 588.308982,0.599636777 C588.308982,0.599636777 578.667777,50.9112773 635.481867,52.976707" id="Fill-6" fill="#ED0F44"></path>
                <path d="M635.492156,71.2891843 C635.492156,71.2891843 619.150549,119.214011 572.727869,103.397618 C572.727869,103.397618 581.674598,52.957424 635.492156,71.2891843" id="Fill-8" fill="#ED0F44"></path>
                <path d="M707.109289,76.465614 C707.109289,76.465614 716.844806,26.7838868 668.711658,17.356614 C668.711658,17.356614 651.315478,65.5385479 707.109289,76.465614" id="Fill-10" fill="#ED0F44"></path>
                <path d="M704.25208,94.5561219 C704.25208,94.5561219 680.614195,139.331382 637.235203,116.453105 C637.235203,116.453105 653.971203,68.0354897 704.25208,94.5561219" id="Fill-12" fill="#ED0F44"></path>
                <path d="M774.177609,110.867875 C774.177609,110.867875 791.569502,63.3201393 745.50692,46.4838872 C745.50692,46.4838872 720.780166,91.3491351 774.177609,110.867875" id="Fill-14" fill="#ED0F44"></path>
                <path d="M768.524065,128.288618 C768.524065,128.288618 738.172917,168.81732 698.909335,139.43851 C698.909335,139.43851 723.010204,94.2304525 768.524065,128.288618" id="Fill-16" fill="#ED0F44"></path>
                <path d="M835.035518,155.334606 C835.035518,155.334606 859.6551,111.090701 816.794821,87.2568417 C816.794821,87.2568417 785.350518,127.708412 835.035518,155.334606" id="Fill-18" fill="#ED0F44"></path>
                <path d="M826.727534,171.654929 C826.727534,171.654929 790.404756,206.934355 756.221133,171.779198 C756.221133,171.779198 787.103854,130.89483 826.727534,171.654929" id="Fill-20" fill="#ED0F44"></path>
                <path d="M888.18818,208.768817 C888.18818,208.768817 919.430999,168.917164 880.823311,138.677044 C880.823311,138.677044 843.437384,173.712217 888.18818,208.768817" id="Fill-22" fill="#ED0F44"></path>
                <path d="M877.42724,223.586775 C877.42724,223.586775 836.028789,252.759899 807.769642,212.68542 C807.769642,212.68542 844.666863,177.136031 877.42724,223.586775" id="Fill-24" fill="#ED0F44"></path>
                <path d="M932.321663,269.85283 C932.321663,269.85283 969.416081,235.379008 936.016958,199.473954 C936.016958,199.473954 893.606802,228.231421 932.321663,269.85283" id="Fill-26" fill="#ED0F44"></path>
                <path d="M919.374841,282.808474 C919.374841,282.808474 873.920997,305.146825 852.2808,261.147172 C852.2808,261.147172 894.287989,231.811214 919.374841,282.808474" id="Fill-28" fill="#ED0F44"></path>
                <path d="M966.352673,337.092424 C966.352673,337.092424 1008.38558,308.840602 981.018107,268.157635 C981.018107,268.157635 934.629722,289.93035 966.352673,337.092424" id="Fill-30" fill="#ED0F44"></path>
                <path d="M951.537198,347.86394 C951.537198,347.86394 903.146837,362.814738 888.661452,315.978333 C888.661452,315.978333 934.745468,293.567135 951.537198,347.86394" id="Fill-32" fill="#ED0F44"></path>
                <path d="M989.44098,408.821971 C989.44098,408.821971 1035.37495,387.490624 1014.71645,343.028178 C1014.71645,343.028178 965.490152,357.2805 989.44098,408.821971" id="Fill-34" fill="#ED0F44"></path>
                <path d="M973.122093,417.141111 C973.122093,417.141111 922.991257,424.34869 916.012208,375.815376 C916.012208,375.815376 965.032741,360.890289 973.122093,417.141111" id="Fill-36" fill="#ED0F44"></path>
                <path d="M1001.02029,483.280286 C1001.02029,483.280286 1049.72788,469.396484 1036.27992,422.247265 C1036.27992,422.247265 985.428884,428.623529 1001.02029,483.280286" id="Fill-38" fill="#ED0F44"></path>
                <path d="M983.600956,488.946505 C983.600956,488.946505 932.95998,488.222319 933.658743,439.200501 C933.658743,439.200501 984.411177,432.121476 983.600956,488.946505" id="Fill-40" fill="#ED0F44"></path>
                <g id="Group-44" transform="translate(999.844262, 503.359504)">
                    <mask id="mask-2" fill="white">
                        <use xlink:href="#path-1"></use>
                    </mask>
                    <g id="Clip-43"></g>
                    <path d="M0.960821311,55.2704012 C0.960821311,55.2704012 51.2416984,49.1726698 45.3386574,0.506516942 C45.3386574,0.506516942 -5.88533443,-1.14754091 0.960821311,55.2704012" id="Fill-42" fill="#ED0F44" mask="url(#mask-2)"></path>
                </g>
                <path d="M982.713142,561.504795 C982.713142,561.504795 932.805224,552.87027 941.173224,504.559783 C941.173224,504.559783 992.410076,505.506795 982.713142,561.504795" id="Fill-45" fill="#ED0F44"></path>
                <path d="M988.800519,633.020943 C988.800519,633.020943 1039.41577,634.863546 1041.19912,585.867439 C1041.19912,585.867439 990.866798,576.22591 988.800519,633.020943" id="Fill-47" fill="#ED0F44"></path>
                <path d="M970.480515,633.029513 C970.480515,633.029513 922.540277,616.694621 938.358884,570.291013 C938.358884,570.291013 988.81981,579.234067 970.480515,633.029513" id="Fill-49" fill="#ED0F44"></path>
                <path d="M965.299814,704.617223 C965.299814,704.617223 1015.00625,714.348739 1024.43311,666.239652 C1024.43311,666.239652 976.231371,648.846334 965.299814,704.617223" id="Fill-51" fill="#ED0F44"></path>
                <path d="M947.206157,701.762902 C947.206157,701.762902 902.408207,678.134728 925.300174,634.773559 C925.300174,634.773559 973.73769,651.498398 947.206157,701.762902" id="Fill-53" fill="#ED0F44"></path>
                <path d="M930.885557,771.66013 C930.885557,771.66013 978.452835,789.044878 995.296007,743.001221 C995.296007,743.001221 950.412319,718.284626 930.885557,771.66013" id="Fill-55" fill="#ED0F44"></path>
                <path d="M913.459797,766.006337 C913.459797,766.006337 872.914436,735.66766 902.305321,696.420209 C902.305321,696.420209 947.531961,720.515461 913.459797,766.006337" id="Fill-57" fill="#ED0F44"></path>
                <path d="M886.402692,832.493035 C886.402692,832.493035 930.664782,857.102502 954.508438,814.255548 C954.508438,814.255548 914.040241,782.828448 886.402692,832.493035" id="Fill-59" fill="#ED0F44"></path>
                <path d="M870.075661,824.186322 C870.075661,824.186322 834.777448,787.878467 869.951341,753.713174 C869.951341,753.713174 910.848226,784.578921 870.075661,824.186322" id="Fill-61" fill="#ED0F44"></path>
                <path d="M832.946519,885.621716 C832.946519,885.621716 872.810265,916.8517 903.067101,878.259873 C903.067101,878.259873 868.017527,840.893592 832.946519,885.621716" id="Fill-63" fill="#ED0F44"></path>
                <path d="M818.120326,874.866912 C818.120326,874.866912 788.939498,833.48547 829.026162,805.237933 C829.026162,805.237933 864.590162,842.119995 818.120326,874.866912" id="Fill-65" fill="#ED0F44"></path>
                <path d="M771.833111,929.736639 C771.833111,929.736639 806.321103,966.815817 842.240915,933.430416 C842.240915,933.430416 813.471628,891.041969 771.833111,929.736639" id="Fill-67" fill="#ED0F44"></path>
                <path d="M758.874286,916.797707 C758.874286,916.797707 736.526753,871.358252 780.544491,849.731232 C780.544491,849.731232 809.896794,891.721162 758.874286,916.797707" id="Fill-69" fill="#ED0F44"></path>
                <path d="M704.570167,963.754095 C704.570167,963.754095 732.829315,1005.76974 773.53329,978.413505 C773.53329,978.413505 751.751626,932.048463 704.570167,963.754095" id="Fill-71" fill="#ED0F44"></path>
                <path d="M693.794224,948.944279 C693.794224,948.944279 678.832994,900.578084 725.692937,886.094365 C725.692937,886.094365 748.113347,932.159448 693.794224,948.944279" id="Fill-73" fill="#ED0F44"></path>
                <path d="M632.811138,986.832488 C632.811138,986.832488 654.146966,1032.75188 698.631974,1012.09758 C698.631974,1012.09758 684.373793,962.8915 632.811138,986.832488" id="Fill-75" fill="#ED0F44"></path>
                <path d="M624.486435,970.520735 C624.486435,970.520735 617.275894,920.410495 665.829157,913.434313 C665.829157,913.434313 680.760378,962.434706 624.486435,970.520735" id="Fill-77" fill="#ED0F44"></path>
                <path d="M558.32222,998.407464 C558.32222,998.407464 572.211728,1047.09504 619.380326,1033.65261 C619.380326,1033.65261 612.997154,982.822469 558.32222,998.407464" id="Fill-79" fill="#ED0F44"></path>
                <path d="M552.653671,980.994863 C552.653671,980.994863 553.373868,930.374694 602.420122,931.077454 C602.420122,931.077454 609.502057,981.804752 552.653671,980.994863" id="Fill-81" fill="#ED0F44"></path>
                <path d="M410.179469,52.976707 C410.179469,52.976707 408.336108,2.38224835 457.352354,0.599636777 C457.352354,0.599636777 466.997846,50.9112773 410.179469,52.976707" id="Fill-83" fill="#ED0F44"></path>
                <path d="M410.171324,71.2891843 C410.171324,71.2891843 426.508643,119.214011 472.935611,103.397618 C472.935611,103.397618 463.988881,52.957424 410.171324,71.2891843" id="Fill-85" fill="#ED0F44"></path>
                <path d="M338.55419,76.465614 C338.55419,76.465614 328.818674,26.7838868 376.947534,17.356614 C376.947534,17.356614 394.348002,65.5385479 338.55419,76.465614" id="Fill-87" fill="#ED0F44"></path>
                <path d="M341.411399,94.5561219 C341.411399,94.5561219 365.049284,139.331382 408.423989,116.453105 C408.423989,116.453105 391.692276,68.0354897 341.411399,94.5561219" id="Fill-89" fill="#ED0F44"></path>
                <path d="M271.48587,110.867875 C271.48587,110.867875 254.08969,63.3201393 300.156559,46.4838872 C300.156559,46.4838872 324.883313,91.3491351 271.48587,110.867875" id="Fill-91" fill="#ED0F44"></path>
                <path d="M277.1377,128.288618 C277.1377,128.288618 307.493134,168.81732 346.756716,139.43851 C346.756716,139.43851 322.651561,94.2304525 277.1377,128.288618" id="Fill-93" fill="#ED0F44"></path>
                <path d="M210.625818,155.334606 C210.625818,155.334606 186.006236,111.090701 228.866515,87.2568417 C228.866515,87.2568417 260.310818,127.708412 210.625818,155.334606" id="Fill-95" fill="#ED0F44"></path>
                <path d="M218.935945,171.654929 C218.935945,171.654929 255.258724,206.934355 289.43806,171.779198 C289.43806,171.779198 258.559625,130.89483 218.935945,171.654929" id="Fill-97" fill="#ED0F44"></path>
                <path d="M157.4753,208.768817 C157.4753,208.768817 126.23248,168.917164 164.840169,138.677044 C164.840169,138.677044 202.226095,173.712217 157.4753,208.768817" id="Fill-99" fill="#ED0F44"></path>
                <path d="M168.236668,223.586775 C168.236668,223.586775 209.635119,252.759899 237.894266,212.68542 C237.894266,212.68542 200.992758,177.136031 168.236668,223.586775" id="Fill-101" fill="#ED0F44"></path>
                <path d="M113.342245,269.85283 C113.342245,269.85283 76.247827,235.379008 109.64695,199.473954 C109.64695,199.473954 152.052819,228.231421 113.342245,269.85283" id="Fill-103" fill="#ED0F44"></path>
                <path d="M126.288639,282.808474 C126.288639,282.808474 171.742483,305.146825 193.38268,261.147172 C193.38268,261.147172 151.375491,231.811214 126.288639,282.808474" id="Fill-105" fill="#ED0F44"></path>
                <path d="M79.3108066,337.092424 C79.3108066,337.092424 37.2778967,308.840602 64.6453721,268.157635 C64.6453721,268.157635 111.033757,289.93035 79.3108066,337.092424" id="Fill-107" fill="#ED0F44"></path>
                <path d="M94.1267107,347.86394 C94.1267107,347.86394 142.517071,362.814738 157.002457,315.978333 C157.002457,315.978333 110.91844,293.567135 94.1267107,347.86394" id="Fill-109" fill="#ED0F44"></path>
                <path d="M56.2207852,408.821971 C56.2207852,408.821971 10.2868098,387.490624 30.9495967,343.028178 C30.9495967,343.028178 80.1716131,357.2805 56.2207852,408.821971" id="Fill-111" fill="#ED0F44"></path>
                <path d="M72.5392426,417.141111 C72.5392426,417.141111 122.674366,424.34869 129.653415,375.815376 C129.653415,375.815376 80.6285951,360.890289 72.5392426,417.141111" id="Fill-113" fill="#ED0F44"></path>
                <path d="M44.6410508,483.280286 C44.6410508,483.280286 -4.06653934,469.396484 9.38141967,422.247265 C9.38141967,422.247265 60.2324525,428.623529 44.6410508,483.280286" id="Fill-115" fill="#ED0F44"></path>
                <path d="M62.060809,488.946505 C62.060809,488.946505 112.706071,488.222319 112.003022,439.200501 C112.003022,439.200501 61.2505877,432.121476 62.060809,488.946505" id="Fill-117" fill="#ED0F44"></path>
                <path d="M44.8566811,558.629905 C44.8566811,558.629905 -5.4241959,552.532174 0.483131967,503.866021 C0.483131967,503.866021 51.7028369,502.211963 44.8566811,558.629905" id="Fill-119" fill="#ED0F44"></path>
                <path d="M62.9503377,561.504795 C62.9503377,561.504795 112.858256,552.87027 104.490256,504.559783 C104.490256,504.559783 53.2534033,505.506795 62.9503377,561.504795" id="Fill-121" fill="#ED0F44"></path>
                <path d="M56.8633893,633.020943 C56.8633893,633.020943 6.24813525,634.863546 4.46479098,585.867439 C4.46479098,585.867439 54.7971107,576.22591 56.8633893,633.020943" id="Fill-123" fill="#ED0F44"></path>
                <path d="M75.1808213,633.029513 C75.1808213,633.029513 123.125346,616.694621 107.302452,570.291013 C107.302452,570.291013 56.8415262,579.234067 75.1808213,633.029513" id="Fill-125" fill="#ED0F44"></path>
                <path d="M80.3615221,704.617223 C80.3615221,704.617223 30.6593746,714.348739 21.228227,666.239652 C21.228227,666.239652 69.4299648,648.846334 80.3615221,704.617223" id="Fill-127" fill="#ED0F44"></path>
                <path d="M98.4573221,701.762902 C98.4573221,701.762902 143.250986,678.134728 120.363306,634.773559 C120.363306,634.773559 71.9257893,651.498398 98.4573221,701.762902" id="Fill-129" fill="#ED0F44"></path>
                <path d="M114.776208,771.66013 C114.776208,771.66013 67.2089295,789.044878 50.3657574,743.001221 C50.3657574,743.001221 95.2537328,718.284626 114.776208,771.66013" id="Fill-131" fill="#ED0F44"></path>
                <path d="M132.201968,766.006337 C132.201968,766.006337 172.747329,735.66766 143.356443,696.420209 C143.356443,696.420209 98.1298041,720.515461 132.201968,766.006337" id="Fill-133" fill="#ED0F44"></path>
                <path d="M159.260788,832.493035 C159.260788,832.493035 114.998698,857.102502 91.1550418,814.255548 C91.1550418,814.255548 131.623239,782.828448 159.260788,832.493035" id="Fill-135" fill="#ED0F44"></path>
                <path d="M175.587819,824.186322 C175.587819,824.186322 210.886032,787.878467 175.712139,753.713174 C175.712139,753.713174 134.815253,784.578921 175.587819,824.186322" id="Fill-137" fill="#ED0F44"></path>
                <path d="M212.714817,885.621716 C212.714817,885.621716 172.851071,916.8517 142.598522,878.259873 C142.598522,878.259873 177.648096,840.893592 212.714817,885.621716" id="Fill-139" fill="#ED0F44"></path>
                <path d="M227.54101,874.866912 C227.54101,874.866912 256.726125,833.48547 216.635174,805.237933 C216.635174,805.237933 181.071174,842.119995 227.54101,874.866912" id="Fill-141" fill="#ED0F44"></path>
                <path d="M273.828225,929.736639 C273.828225,929.736639 239.340233,966.815817 203.420421,933.430416 C203.420421,933.430416 232.189708,891.041969 273.828225,929.736639" id="Fill-143" fill="#ED0F44"></path>
                <path d="M286.789193,916.797707 C286.789193,916.797707 309.136726,871.358252 265.118989,849.731232 C265.118989,849.731232 235.766685,891.721162 286.789193,916.797707" id="Fill-145" fill="#ED0F44"></path>
                <path d="M341.093312,963.754095 C341.093312,963.754095 312.834165,1005.76974 272.130189,978.413505 C272.130189,978.413505 293.911853,932.048463 341.093312,963.754095" id="Fill-147" fill="#ED0F44"></path>
                <path d="M351.867112,948.944279 C351.867112,948.944279 366.828342,900.578084 319.972686,886.094365 C319.972686,886.094365 297.552276,932.159448 351.867112,948.944279" id="Fill-149" fill="#ED0F44"></path>
                <path d="M412.85277,986.832488 C412.85277,986.832488 391.512656,1032.75188 347.031934,1012.09758 C347.031934,1012.09758 361.290115,962.8915 412.85277,986.832488" id="Fill-151" fill="#ED0F44"></path>
                <path d="M421.177473,970.520735 C421.177473,970.520735 428.383727,920.410495 379.834752,913.434313 C379.834752,913.434313 364.90353,962.434706 421.177473,970.520735" id="Fill-153" fill="#ED0F44"></path>
                <path d="M487.341689,998.407464 C487.341689,998.407464 473.45218,1047.09504 426.283582,1033.65261 C426.283582,1033.65261 432.666754,982.822469 487.341689,998.407464" id="Fill-155" fill="#ED0F44"></path>
                <path d="M493.009808,980.994863 C493.009808,980.994863 492.285325,930.374694 443.243357,931.077454 C443.243357,931.077454 436.161423,981.804752 493.009808,980.994863" id="Fill-157" fill="#ED0F44"></path>
            </g>
        </g>
    </g>
</svg>